<?xml version="1.0" encoding="utf-8"?>
<!-- Generator: Adobe Illustrator 18.1.1, SVG Export Plug-In . SVG Version: 6.00 Build 0)  -->
<svg version="1.1" id="Layer_1" xmlns="http://www.w3.org/2000/svg" xmlns:xlink="http://www.w3.org/1999/xlink" x="0px" y="0px"
	 viewBox="0 0 262.7 83.3" enable-background="new 0 0 262.7 83.3" xml:space="preserve">
<g>
	<polygon fill="#FFFFFF" points="71.3,72.9 106.4,72.9 106.4,62.8 83.6,62.8 83.6,47.3 106.4,47.3 106.4,37.4 83.6,37.4 83.5,23.9 
		106.4,23.9 106.4,13.3 71.3,13.3 	"/>
	<polygon fill="#FFFFFF" points="156.8,13.3 113.3,13.3 113.3,23.9 129.7,23.9 129.7,72.9 142,72.9 142,23.9 156.8,23.9 	"/>
	<path fill="#FFFFFF" d="M251.9,54.8c0-20.7-28.7-14.3-28.2-26.6c0-4.8,4.3-6.4,8.5-6.4c4.8,0,8.5,1.1,12.2,4.3l5.3-8.5
		c-5.3-3.7-10.6-5.8-18.1-5.8c-10.1,0-20.7,5.8-21.3,17.5c0,21.3,28.7,14.4,28.2,26.6c0,5.3-4.3,7.5-9.6,7.5
		c-4.8,0-10.1-1.6-13.3-4.8l-5.8,9c4.3,3.3,7.7,5.2,11.6,6.1v-6.4l8.4,7.2C242,74.3,251.9,67.9,251.9,54.8z"/>
	<polygon fill="#FFFFFF" points="52.3,48.9 10.8,13.2 10.8,72.9 23,72.9 23,37.4 64.5,73 64.5,13.3 52.3,13.3 	"/>
	<path fill="#FFFFFF" d="M150,72.9h12.8l4.3-8.5h23.4l4.3,8.5h13.8l-29.2-61.2L150,72.9z M169.7,54.3l9.5-19.7l9.5,19.7H169.7z"/>
</g>
</svg>
